<?xml version="1.0" encoding="utf-8"?>
<!-- Generator: Adobe Illustrator 22.0.1, SVG Export Plug-In . SVG Version: 6.00 Build 0)  -->
<svg version="1.0" id="Layer_1" xmlns="http://www.w3.org/2000/svg" xmlns:xlink="http://www.w3.org/1999/xlink" x="0px" y="0px"
	 width="256px" height="256px" viewBox="0 0 256 256" enable-background="new 0 0 256 256" xml:space="preserve">
<g>
	<g>
		<path fill="#FFFFFF" d="M34.9,209.1c-4.5-24.6-11.8-67-14.4-99.9c-0.3-3.3,2.3-6.1,5.6-6.2c19.1-0.4,46.2-3.8,58.4-25.5
			c2.1-3.8,4.2-10.6,4.6-14.9c1.6-20,18.4-35.7,38.9-35.7c20.3,0,37,15.4,38.8,35.2c0.4,4.6,1.5,9.2,3.5,13.3
			c11.5,23.7,39.9,27.2,59.7,27.6c3.2,0.1,5.8,2.8,5.5,6.1c-2.6,32.9-9.9,75.4-14.4,100c-2.1,11.6-12.3,20-24.1,20H59
			C47.2,229.1,37.1,220.7,34.9,209.1L34.9,209.1z"/>
		<path fill="none" stroke="#3F3F3F" stroke-width="6.88" stroke-linecap="round" stroke-miterlimit="10" d="M34.9,209.1
			c-4.5-24.6-11.8-67-14.4-99.9c-0.3-3.3,2.3-6.1,5.6-6.2c19.1-0.4,46.2-3.8,58.4-25.5c2.1-3.8,4.2-10.6,4.6-14.9
			c1.6-20,18.4-35.7,38.9-35.7c20.3,0,37,15.4,38.8,35.2c0.4,4.6,1.5,9.2,3.5,13.3c11.5,23.7,39.9,27.2,59.7,27.6
			c3.2,0.1,5.8,2.8,5.5,6.1c-2.6,32.9-9.9,75.4-14.4,100c-2.1,11.6-12.3,20-24.1,20H59C47.2,229.1,37.1,220.7,34.9,209.1z"/>
		<path fill="#FFFFFF" d="M148.8,65.9c0,11.5-9.3,20.8-20.8,20.8s-20.8-9.3-20.8-20.8c0-11.5,9.3-20.8,20.8-20.8
			S148.8,54.4,148.8,65.9L148.8,65.9z"/>
		<path fill="none" stroke="#3F3F3F" stroke-width="6.88" stroke-linecap="round" stroke-miterlimit="10" d="M148.8,65.9
			c0,11.5-9.3,20.8-20.8,20.8s-20.8-9.3-20.8-20.8c0-11.5,9.3-20.8,20.8-20.8S148.8,54.4,148.8,65.9z"/>
		<path fill="#FFFFFF" d="M73.3,199.1c0,3.5-2.8,6.3-6.3,6.3c-3.5,0-6.3-2.8-6.3-6.3c0-3.5,2.8-6.3,6.3-6.3
			C70.5,192.8,73.3,195.6,73.3,199.1L73.3,199.1z"/>
		<path fill="none" stroke="#3F3F3F" stroke-width="6.88" stroke-linecap="round" stroke-miterlimit="10" d="M73.3,199.1
			c0,3.5-2.8,6.3-6.3,6.3c-3.5,0-6.3-2.8-6.3-6.3c0-3.5,2.8-6.3,6.3-6.3C70.5,192.8,73.3,195.6,73.3,199.1z"/>
		<path fill="#FFFFFF" d="M103.8,199.1c0,3.5-2.8,6.3-6.3,6.3c-3.5,0-6.3-2.8-6.3-6.3c0-3.5,2.8-6.3,6.3-6.3
			C101,192.8,103.8,195.6,103.8,199.1L103.8,199.1z"/>
		<path fill="none" stroke="#3F3F3F" stroke-width="6.88" stroke-linecap="round" stroke-miterlimit="10" d="M103.8,199.1
			c0,3.5-2.8,6.3-6.3,6.3c-3.5,0-6.3-2.8-6.3-6.3c0-3.5,2.8-6.3,6.3-6.3C101,192.8,103.8,195.6,103.8,199.1z"/>
		<path fill="#FFFFFF" d="M134.3,199.1c0,3.5-2.8,6.3-6.3,6.3c-3.5,0-6.3-2.8-6.3-6.3c0-3.5,2.8-6.3,6.3-6.3
			C131.5,192.8,134.3,195.6,134.3,199.1L134.3,199.1z"/>
		<path fill="none" stroke="#3F3F3F" stroke-width="6.88" stroke-linecap="round" stroke-miterlimit="10" d="M134.3,199.1
			c0,3.5-2.8,6.3-6.3,6.3c-3.5,0-6.3-2.8-6.3-6.3c0-3.5,2.8-6.3,6.3-6.3C131.5,192.8,134.3,195.6,134.3,199.1z"/>
		<path fill="#FFFFFF" d="M164.8,199.1c0,3.5-2.8,6.3-6.3,6.3c-3.5,0-6.3-2.8-6.3-6.3c0-3.5,2.8-6.3,6.3-6.3
			C162,192.8,164.8,195.6,164.8,199.1L164.8,199.1z"/>
		<path fill="none" stroke="#3F3F3F" stroke-width="6.88" stroke-linecap="round" stroke-miterlimit="10" d="M164.8,199.1
			c0,3.5-2.8,6.3-6.3,6.3c-3.5,0-6.3-2.8-6.3-6.3c0-3.5,2.8-6.3,6.3-6.3C162,192.8,164.8,195.6,164.8,199.1z"/>
		<path fill="#FFFFFF" d="M195.3,199.1c0,3.5-2.8,6.3-6.3,6.3c-3.5,0-6.3-2.8-6.3-6.3c0-3.5,2.8-6.3,6.3-6.3
			C192.5,192.8,195.3,195.6,195.3,199.1L195.3,199.1z"/>
		<path fill="none" stroke="#3F3F3F" stroke-width="6.88" stroke-linecap="round" stroke-miterlimit="10" d="M195.3,199.1
			c0,3.5-2.8,6.3-6.3,6.3c-3.5,0-6.3-2.8-6.3-6.3c0-3.5,2.8-6.3,6.3-6.3C192.5,192.8,195.3,195.6,195.3,199.1z"/>
		<path fill="#FFFFFF" d="M68.1,164.9c0,3.5-2.8,6.3-6.3,6.3c-3.5,0-6.3-2.8-6.3-6.3c0-3.5,2.8-6.3,6.3-6.3
			C65.3,158.6,68.1,161.4,68.1,164.9L68.1,164.9z"/>
		<path fill="none" stroke="#3F3F3F" stroke-width="6.88" stroke-linecap="round" stroke-miterlimit="10" d="M68.1,164.9
			c0,3.5-2.8,6.3-6.3,6.3c-3.5,0-6.3-2.8-6.3-6.3c0-3.5,2.8-6.3,6.3-6.3C65.3,158.6,68.1,161.4,68.1,164.9z"/>
		<path fill="#FFFFFF" d="M101.2,164.9c0,3.5-2.8,6.3-6.3,6.3c-3.5,0-6.3-2.8-6.3-6.3c0-3.5,2.8-6.3,6.3-6.3
			C98.4,158.6,101.2,161.4,101.2,164.9L101.2,164.9z"/>
		<path fill="none" stroke="#3F3F3F" stroke-width="6.88" stroke-linecap="round" stroke-miterlimit="10" d="M101.2,164.9
			c0,3.5-2.8,6.3-6.3,6.3c-3.5,0-6.3-2.8-6.3-6.3c0-3.5,2.8-6.3,6.3-6.3C98.4,158.6,101.2,161.4,101.2,164.9z"/>
		<path fill="#FFFFFF" d="M134.3,164.9c0,3.5-2.8,6.3-6.3,6.3c-3.5,0-6.3-2.8-6.3-6.3c0-3.5,2.8-6.3,6.3-6.3
			C131.5,158.6,134.3,161.4,134.3,164.9L134.3,164.9z"/>
		<path fill="none" stroke="#3F3F3F" stroke-width="6.88" stroke-linecap="round" stroke-miterlimit="10" d="M134.3,164.9
			c0,3.5-2.8,6.3-6.3,6.3c-3.5,0-6.3-2.8-6.3-6.3c0-3.5,2.8-6.3,6.3-6.3C131.5,158.6,134.3,161.4,134.3,164.9z"/>
		<path fill="#FFFFFF" d="M167.3,164.9c0,3.5-2.8,6.3-6.3,6.3c-3.5,0-6.3-2.8-6.3-6.3c0-3.5,2.8-6.3,6.3-6.3
			C164.5,158.6,167.3,161.4,167.3,164.9L167.3,164.9z"/>
		<path fill="none" stroke="#3F3F3F" stroke-width="6.88" stroke-linecap="round" stroke-miterlimit="10" d="M167.3,164.9
			c0,3.5-2.8,6.3-6.3,6.3c-3.5,0-6.3-2.8-6.3-6.3c0-3.5,2.8-6.3,6.3-6.3C164.5,158.6,167.3,161.4,167.3,164.9z"/>
		<path fill="#FFFFFF" d="M200.4,164.9c0,3.5-2.8,6.3-6.3,6.3c-3.5,0-6.3-2.8-6.3-6.3c0-3.5,2.8-6.3,6.3-6.3
			C197.6,158.6,200.4,161.4,200.4,164.9L200.4,164.9z"/>
		<path fill="none" stroke="#3F3F3F" stroke-width="6.88" stroke-linecap="round" stroke-miterlimit="10" d="M200.4,164.9
			c0,3.5-2.8,6.3-6.3,6.3c-3.5,0-6.3-2.8-6.3-6.3c0-3.5,2.8-6.3,6.3-6.3C197.6,158.6,200.4,161.4,200.4,164.9z"/>
		<path fill="#FFFFFF" d="M207.7,130.6c0,3.5-2.8,6.3-6.3,6.3c-3.5,0-6.3-2.8-6.3-6.3c0-3.5,2.8-6.3,6.3-6.3
			C204.9,124.4,207.7,127.2,207.7,130.6L207.7,130.6z"/>
		<path fill="none" stroke="#3F3F3F" stroke-width="6.88" stroke-linecap="round" stroke-miterlimit="10" d="M207.7,130.6
			c0,3.5-2.8,6.3-6.3,6.3c-3.5,0-6.3-2.8-6.3-6.3c0-3.5,2.8-6.3,6.3-6.3C204.9,124.4,207.7,127.2,207.7,130.6z"/>
		<path fill="#FFFFFF" d="M171,130.6c0,3.5-2.8,6.3-6.3,6.3c-3.5,0-6.3-2.8-6.3-6.3c0-3.5,2.8-6.3,6.3-6.3
			C168.2,124.4,171,127.2,171,130.6L171,130.6z"/>
		<path fill="none" stroke="#3F3F3F" stroke-width="6.88" stroke-linecap="round" stroke-miterlimit="10" d="M171,130.6
			c0,3.5-2.8,6.3-6.3,6.3c-3.5,0-6.3-2.8-6.3-6.3c0-3.5,2.8-6.3,6.3-6.3C168.2,124.4,171,127.2,171,130.6z"/>
		<path fill="#FFFFFF" d="M134.3,130.6c0,3.5-2.8,6.3-6.3,6.3c-3.5,0-6.3-2.8-6.3-6.3c0-3.5,2.8-6.3,6.3-6.3
			C131.5,124.4,134.3,127.2,134.3,130.6L134.3,130.6z"/>
		<path fill="none" stroke="#3F3F3F" stroke-width="6.88" stroke-linecap="round" stroke-miterlimit="10" d="M134.3,130.6
			c0,3.5-2.8,6.3-6.3,6.3c-3.5,0-6.3-2.8-6.3-6.3c0-3.5,2.8-6.3,6.3-6.3C131.5,124.4,134.3,127.2,134.3,130.6z"/>
		<path fill="#FFFFFF" d="M97.6,130.6c0,3.5-2.8,6.3-6.3,6.3c-3.5,0-6.3-2.8-6.3-6.3c0-3.5,2.8-6.3,6.3-6.3
			C94.8,124.4,97.6,127.2,97.6,130.6L97.6,130.6z"/>
		<path fill="none" stroke="#3F3F3F" stroke-width="6.88" stroke-linecap="round" stroke-miterlimit="10" d="M97.6,130.6
			c0,3.5-2.8,6.3-6.3,6.3c-3.5,0-6.3-2.8-6.3-6.3c0-3.5,2.8-6.3,6.3-6.3C94.8,124.4,97.6,127.2,97.6,130.6z"/>
		<path fill="#FFFFFF" d="M60.9,130.6c0,3.5-2.8,6.3-6.3,6.3c-3.5,0-6.3-2.8-6.3-6.3c0-3.5,2.8-6.3,6.3-6.3
			C58.1,124.4,60.9,127.2,60.9,130.6L60.9,130.6z"/>
		<path fill="none" stroke="#3F3F3F" stroke-width="6.88" stroke-linecap="round" stroke-miterlimit="10" d="M60.9,130.6
			c0,3.5-2.8,6.3-6.3,6.3c-3.5,0-6.3-2.8-6.3-6.3c0-3.5,2.8-6.3,6.3-6.3C58.1,124.4,60.9,127.2,60.9,130.6z"/>
	</g>
</g>
</svg>
